<svg width="288" height="288" viewBox="0 0 288 288" fill="none" xmlns="http://www.w3.org/2000/svg">
<path fill-rule="evenodd" clip-rule="evenodd" d="M142.412 0C83.0561 0.00564203 41.9276 0.203114 20.8161 20.8191C0.201194 41.9259 0.00368057 84.9858 0.00368057 142.411C63.7673 140.486 92.9261 138.89 116.182 116.18C138.89 92.9244 140.487 63.7662 142.412 0ZM20.8124 267.183C0.197514 246.076 0 203.017 0 145.592C63.7637 147.516 92.9225 149.113 116.178 171.822C138.887 195.078 140.484 224.236 142.408 287.997C83.0525 287.997 41.924 287.805 20.8124 267.183ZM145.591 287.997C147.515 224.236 149.112 195.078 171.821 171.822C195.077 149.113 224.235 147.516 287.999 145.592C287.993 203.017 287.796 246.076 267.181 267.183C246.069 287.805 204.947 287.997 145.591 287.997ZM145.591 0C147.515 63.7662 149.112 92.9244 171.821 116.18C195.077 138.89 224.235 140.486 287.999 142.411C287.993 84.9858 287.796 41.9259 267.181 20.8191C246.069 0.203114 204.947 0.00564203 145.591 0Z" fill="white"/>
</svg>
